<?xml version="1.0" encoding="UTF-8" standalone="no"?>
<svg xmlns="http://www.w3.org/2000/svg" viewBox="0 0 23 27.05" style="stroke:#3d3d3d">
	<g style="fill:#ffffff;stroke-width:2">
		<rect ry="4.34" y="2.2" x="1" height="23.85" width="21"/>
		<rect ry="1.51" y="0.75" x="7.19" height="3.02" width="8.61"/>
	</g>
	<g style="fill:none;stroke-width:1.2">
		<path d="M 5.49,12.17 H 17.51"/>
		<path d="M 5.49,15.93 H 17.51"/>
		<path d="M 5.49,19.7 H 17.51"/>
		<path d="M 7.69,7.79 H 15.31"/>
	</g>
	<path d="m 5.84,15.45 q 0.58,0 0.87,0.94 0.59,1.77 0.84,1.77 0.19,0 0.4,-0.3 4.14,-6.64 7.67,-10.74 0.91,-1.06 2.9,-1.06 0.47,0 0.63,0.09 0.16,0.09 0.16,0.22 0,0.21 -0.49,0.81 -5.69,6.84 -10.56,14.45 -0.34,0.53 -1.39,0.53 -1.06,0 -1.25,-0.09 -0.5,-0.22 -1.18,-2.26 -0.77,-2.26 -0.77,-2.83 0,-0.62 1.03,-1.19 0.63,-0.35 1.12,-0.35 z" style="fill:#008000;stroke:none"/>
</svg>
