<?xml version="1.0" encoding="UTF-8" standalone="no"?>
<svg xmlns="http://www.w3.org/2000/svg" viewBox="0 0 30 30">
  <circle r="3" cy="15" cx="15" fill="dimgray" />
  <path fill="dimgray" d="M 13.29,0.098 C 13.85,0.03 14.42,-2.6e-6 15,-2.6e-6 c 0.58,0 1.15,0.03 1.71,0.1 l 0.51,3.68 c 0.88,0.17 1.74,0.45 2.58,0.85 L 22.29,2.03 c 1,0.6 1.92,1.31 2.76,2.15 l -1.65,3.07 c 0.62,0.66 1.14,1.38 1.58,2.17 l 3.25,-0.61 c 0.49,1.1 0.83,2.26 1.04,3.47 l -2.92,1.36 c 0.05,0.46 0.08,0.91 0.08,1.36 0,0.45 -0.03,0.9 -0.08,1.36 L 29.26,17.73 c -0.21,1.2 -0.56,2.34 -1.04,3.45 L 24.97,20.56 c -0.43,0.79 -0.96,1.52 -1.58,2.19 l 1.65,3.05 c -0.84,0.84 -1.76,1.56 -2.76,2.17 l -2.48,-2.6 c -0.84,0.38 -1.7,0.66 -2.58,0.85 l -0.51,3.66 c -0.56,0.08 -1.14,0.12 -1.71,0.12 -0.58,0 -1.15,-0.04 -1.71,-0.12 L 12.77,26.22 C 11.89,26.03 11.03,25.75 10.19,25.37 L 7.71,27.97 C 6.71,27.37 5.79,26.64 4.95,25.8 L 6.61,22.75 C 5.99,22.09 5.47,21.37 5.03,20.56 L 1.78,21.18 C 1.3,20.07 0.95,18.92 0.74,17.73 L 3.65,16.35 c -0.05,-0.46 -0.08,-0.91 -0.08,-1.36 0,-0.45 0.03,-0.9 0.08,-1.36 L 0.74,12.27 C 0.95,11.06 1.3,9.91 1.78,8.8 l 3.25,0.61 C 5.47,8.63 6,7.9 6.6,7.23 L 4.95,4.18 C 5.79,3.34 6.71,2.62 7.71,2.03 L 10.19,4.61 C 11.03,4.23 11.89,3.95 12.77,3.78 Z M 21.13,8.88 C 19.43,7.18 17.39,6.32 15,6.32 c -2.39,0 -4.43,0.85 -6.13,2.56 -1.69,1.69 -2.54,3.74 -2.54,6.13 0,2.38 0.85,4.41 2.54,6.11 1.69,1.69 3.74,2.54 6.13,2.54 2.39,0 4.43,-0.85 6.13,-2.54 1.69,-1.69 2.54,-3.73 2.54,-6.11 0,-2.39 -0.85,-4.43 -2.54,-6.13 z" />
</svg>
