<?xml version="1.0" encoding="UTF-8" standalone="no"?>
<svg xmlns="http://www.w3.org/2000/svg" viewBox="0 0 30 30">
  <path d="M 7.45,6.35 8.69,6.7 9.55,4.64 C 10.02,3.48 11.35,2.83 13.28,2.83 c 3.09,0 5.28,1.93 5.28,4.68 0,1.72 -0.77,3.09 -3.3,5.88 -2.62,2.88 -3.3,4.03 -3.3,5.49 0,1.29 0.6,2.32 1.89,3.13 l 0.9,-0.6 c -0.69,-0.86 -0.94,-1.37 -0.94,-2.06 0,-1.42 0.56,-2.15 4.03,-5.32 3.69,-3.35 4.72,-4.98 4.72,-7.42 C 22.55,2.83 19.21,0 14.79,0 12.85,0 11.35,0.39 9.08,1.5 Z M 14.1,25 c -1.29,0 -2.45,1.2 -2.45,2.49 0,1.33 1.16,2.49 2.4,2.49 1.37,0 2.58,-1.16 2.58,-2.49 0,-1.29 -1.2,-2.49 -2.53,-2.49 z" style="fill:#696969;fill-opacity:1"/>
</svg>
