<?xml version="1.0" encoding="UTF-8" standalone="no"?>
<svg xmlns="http://www.w3.org/2000/svg" viewBox="0 0 100 46.42" width="100mm"
	style="font-family:sans-serif;font-size:6.18px">
	<defs>
		<marker id="m1">
			<path transform="matrix(-0.4,0,0,-0.4,-2,0)" style="stroke-width:1pt" d="M 0,0 5,-5 -12.5,0 5,5 Z"/>
		</marker>
	</defs>
	<text x="3" y="25.53">&quot;Five fours&quot;</text>
	<text><tspan x="62" y="6.34" style="fill:#000000">&quot;Five <tspan style="fill:#ff0000">fives</tspan>&quot;</tspan></text>
	<text><tspan x="63" y="15.93">&quot;<tspan style="fill:#ff0000">Six</tspan> fours&quot;</tspan></text>
	<text><tspan y="25.53" x="63.5">&quot;<tspan style="fill:#ff0000">Six twos</tspan>&quot;</tspan></text>
	<text><tspan x="59.5" y="35.1" style="fill:#17a2b8">&quot;Three ones&quot;</tspan></text>
	<text><tspan style="fill:#007bff" y="44.63" x="69">&quot;Dudo&quot;</tspan></text>
	<g style="fill:none;stroke:#999999;stroke-width:0.5">
		<rect width="40.56" height="7.52" x="59.19" y="29.1" ry="2.79" />
		<rect width="40.56" height="7.52" x="59.19" y="19.56" ry="2.79" />
		<rect width="40.56" height="7.52" x="59.19" y="9.87" ry="2.79" />
		<rect width="40.56" height="7.52" x="59.19" y="0.25" ry="2.79" />
		<rect width="40.56" height="7.52" x="59.19" y="38.64" ry="2.79" />
		<rect width="40.56" height="7.52" x="0.25" y="19.48" ry="2.79" />
	</g>
	<g style="fill:none;stroke:#000000;stroke-width:0.26px;marker-end:url(#m1)">
		<path d="M 40.81,19.48 47.15,8.45 C 49.43,4.48 50.77,4.15 57.18,4.15"/>
		<path d="m 42.24,20.89 c 0,0 4.57,-3.77 7,-5.73 1.68,-1.36 2.97,-1.79 8.24,-1.79"/>
		<path d="M 43.03,23.33 H 57.15" />
		<path d="m 40.81,27.18 6.34,11.04 c 2.28,3.96 3.62,4.29 10.03,4.29"/>
		<path d="m 42.24,25.77 c 0,0 4.57,3.77 7,5.73 1.68,1.36 2.97,1.79 8.24,1.79"/>
	</g>
</svg>
